<svg width="64" height="64" viewBox="0 0 64 64" fill="none" xmlns="http://www.w3.org/2000/svg">
<rect width="64" height="64" rx="18" fill="white"/>
<path d="M38.8565 25C38.9588 23.875 38.6861 22.9943 38.0384 22.358C37.3906 21.7102 36.2997 21.3864 34.7656 21.3864C33.7884 21.3864 32.9702 21.5 32.3111 21.7273C31.6634 21.9545 31.1577 22.267 30.794 22.6648C30.4418 23.0625 30.2202 23.5227 30.1293 24.0455C30.027 24.4545 30.0327 24.8295 30.1463 25.1705C30.2713 25.5 30.5043 25.8011 30.8452 26.0739C31.1974 26.3466 31.6577 26.5909 32.2259 26.8068C32.8054 27.0227 33.4929 27.2159 34.2884 27.3864L37.0156 28C38.8793 28.4091 40.4418 28.9489 41.7031 29.6193C42.9759 30.2784 43.9759 31.0625 44.7031 31.9716C45.4304 32.8807 45.9077 33.8977 46.1349 35.0227C46.3736 36.1477 46.3793 37.375 46.152 38.7045C45.7656 41 44.8736 42.9432 43.4759 44.5341C42.0781 46.125 40.2543 47.3352 38.0043 48.1648C35.7543 48.9943 33.152 49.4091 30.1974 49.4091C27.1747 49.4091 24.6065 48.9602 22.4929 48.0625C20.3906 47.1534 18.8679 45.767 17.9247 43.9034C16.9929 42.0284 16.7656 39.6364 17.2429 36.7273H26.2429C26.1065 37.7955 26.2202 38.6932 26.5838 39.4205C26.9474 40.1477 27.5327 40.6989 28.3395 41.0739C29.1463 41.4489 30.152 41.6364 31.3565 41.6364C32.3793 41.6364 33.2543 41.5114 33.9815 41.2614C34.7088 41.0114 35.2827 40.6648 35.7031 40.2216C36.1236 39.7784 36.3793 39.2727 36.4702 38.7045C36.5611 38.1818 36.4702 37.7159 36.1974 37.3068C35.9247 36.8977 35.4304 36.5284 34.7145 36.1989C33.9986 35.8693 33.0156 35.5682 31.7656 35.2955L28.4247 34.5455C25.4588 33.8636 23.2202 32.7386 21.7088 31.1705C20.1974 29.6023 19.6634 27.4545 20.1065 24.7273C20.4702 22.5 21.3849 20.5568 22.8509 18.8977C24.3281 17.2273 26.2031 15.9318 28.4759 15.0114C30.7599 14.0795 33.2884 13.6136 36.0611 13.6136C38.8793 13.6136 41.2372 14.0852 43.1349 15.0284C45.044 15.9716 46.4134 17.2955 47.2429 19C48.0838 20.7045 48.3111 22.7045 47.9247 25H38.8565Z" fill="black"/>
</svg>
